HIERARCHY
ROOT Hips
{
  OFFSET -120.065 97.7907 -413.579
  CHANNELS 6 Xposition Yposition Zposition Zrotation Xrotation Yrotation
  JOINT RightUpLeg
  {
    OFFSET -8.9458 -8.66707 0.101652
    CHANNELS 3 Zrotation Xrotation Yrotation
    JOINT RightLeg
    {
      OFFSET 0 -44.4227 1.3727
      CHANNELS 3 Zrotation Xrotation Yrotation
      JOINT RightFoot
      {
        OFFSET 0.253549 -42.0924 -1.46059
        CHANNELS 3 Zrotation Xrotation Yrotation
        JOINT RightToes
        {
          OFFSET 0.04 -4.41509 8.4991
          CHANNELS 3 Zrotation Xrotation Yrotation
          End Site
          {
            OFFSET -0.08 -0.137448 9.77979
          }
        }
      }
    }
  }
  JOINT Spine
  {
    OFFSET 0 11.8905 0
    CHANNELS 3 Zrotation Xrotation Yrotation
    JOINT Spine1
    {
      OFFSET 0 25.6574 0.127663
      CHANNELS 3 Zrotation Xrotation Yrotation
      JOINT HEad
      {
        OFFSET 0 8.73416 0.011341
        CHANNELS 3 Zrotation Xrotation Yrotation
        End Site
        {
          OFFSET -0.29 12.7742 2.51395
        }
      }
      JOINT LeftShoulder1
      {
        OFFSET 8.99 -0.362252 -0.22
        CHANNELS 3 Zrotation Xrotation Yrotation
        JOINT LeftArm
        {
          OFFSET 10.2827 -0.00338 0.322123
          CHANNELS 3 Zrotation Xrotation Yrotation
          JOINT LeftForeArm
          {
            OFFSET 32.7669 0.099144 -1.42434
            CHANNELS 3 Zrotation Xrotation Yrotation
            JOINT LeftHand
            {
              OFFSET 27.5643 0.085362 1.02216
              CHANNELS 3 Zrotation Xrotation Yrotation
              End Site
              {
                OFFSET 16.7443 -0.6 1.50291
              }
            }
          }
        }
      }
      JOINT RightShoulder
      {
        OFFSET -8.99 -0.362252 -0.22
        CHANNELS 3 Zrotation Xrotation Yrotation
        JOINT RightArm
        {
          OFFSET -10.2827 -0.00338 0.322123
          CHANNELS 3 Zrotation Xrotation Yrotation
          JOINT RightForeArm
          {
            OFFSET -32.8971 0.099144 -1.42434
            CHANNELS 3 Zrotation Xrotation Yrotation
            JOINT RightHand
            {
              OFFSET -25.3806 4.67081 2.732
              CHANNELS 3 Zrotation Xrotation Yrotation
              End Site
              {
                OFFSET -16.6312 -0.6 1.50291
              }
            }
          }
        }
      }
    }
  }
  JOINT LeftUpLeg
  {
    OFFSET 8.9458 -8.66707 0.101652
    CHANNELS 3 Zrotation Xrotation Yrotation
    JOINT LeftLeg
    {
      OFFSET 0 -44.4227 1.3727
      CHANNELS 3 Zrotation Xrotation Yrotation
      JOINT LeftFoot
      {
        OFFSET -0.253549 -42.0924 -1.46059
        CHANNELS 3 Zrotation Xrotation Yrotation
        JOINT LeftToes
        {
          OFFSET -0.04 -4.41509 8.4991
          CHANNELS 3 Zrotation Xrotation Yrotation
          End Site
          {
            OFFSET 0.08 -0.047448 9.77979
          }
        }
      }
    }
  }
}
MOTION
Frames:	14
Frame Time:	0.0166667
-109.913 97.4315 -419.145 14.1146 2.0942 100.476 -15.63 -13.9738 0.481463 16.4967 61.191 -16.6917 3.1174 1.14989 -0.205372 0.0462048 0.000533403 0.662642 12.4083 16.5862 -7.1383 -0.0279391 0.000701965 0.00259075 -22.1646 23.6755 28.0942 -1.59028e-015 -1.78906e-015 -1.59028e-015 -160.152 -72.4253 -158.012 -68.0063 65.025 -55.393 5.89223 21.8042 -1.01668 29.2929 6.23709 2.6903 65.603 -39.5864 72.379 40.2383 67.9834 97.3048 -7.48867 14.6103 -5.94129 16.1287 -15.6185 -5.47539 -9.53136 35.6592 20.0273 -16.7656 -3.5284 -1.21485 -1.18447e-009 1.5602e-007 -4.87131e-009 
-110.23 97.0871 -418.734 13.7917 2.13899 100.529 -15.9745 -15.6264 -0.719502 7.82818 67.3117 -6.56417 7.24205 1.73735 -0.129521 0.0462048 0.000533403 0.662642 14.903 15.4491 -7.08576 -0.0293348 0.00396282 0.00364121 -27.7473 27.3946 33.6292 -1.59028e-015 -1.98785e-016 -0 172.943 -71.8302 174.674 -75.7179 64.7204 -54.7233 12.275 13.8377 -0.88749 27.324 7.08846 3.21741 63.6998 -39.3235 71.4949 40.8508 67.7338 95.4723 -9.63624 17.5506 0.798761 15.3488 -18.0641 -0.0538966 -2.76507 38.9134 6.71701 -17.7545 -3.40855 -1.19155 -1.18446e-009 1.5602e-007 -4.87132e-009 
-110.523 96.5775 -418.162 13.3208 2.28828 100.682 -15.738 -16.1189 -0.868997 -0.944088 69.9035 4.09929 10.994 2.06771 -0.162764 0.0462048 0.000533403 0.662642 16.8347 14.3994 -6.8402 -0.0278118 0.00566525 0.00472109 -32.8664 30.3745 38.765 -6.36111e-015 1.19271e-015 1.59028e-015 136.068 -73.3956 140.171 -78.3754 65.3133 -59.213 10.3237 14.603 -0.262764 25.7741 7.84574 3.83316 62.2651 -38.6465 70.7317 41.5476 67.076 93.068 -9.35626 15.3961 -3.02008 14.7591 -20.2774 4.95589 3.74512 40.6049 -5.36123 -18.3007 -3.20487 -1.12811 -1.18446e-009 1.5602e-007 -4.87132e-009 
-110.808 95.975 -417.419 12.6854 2.48835 100.91 -15.0658 -15.4233 -0.264016 -13.6774 70.1831 18.7068 13.7995 2.34942 -0.174005 0.0462048 0.000533403 0.662642 18.2821 13.4032 -6.38452 -0.024834 0.00666913 0.00548674 -37.4122 32.7008 43.3816 -3.18055e-015 7.95139e-016 -0 118.942 -71.6015 125.555 -82.5239 61.9507 -55.2286 12.0731 13.4129 -5.08953 24.2007 8.47978 4.37698 61.6309 -33.543 69.7686 36.2031 64.8682 92.7949 -10.1565 16.802 0.183028 14.3283 -22.235 9.57381 9.56938 41.12 -15.8543 -18.4899 -2.98529 -1.05192 -1.18446e-009 1.5602e-007 -4.87131e-009 
-111.152 95.3766 -416.392 11.8871 2.66486 101.166 -14.4458 -13.4849 0.978943 -19.9969 67.8825 25.7789 17.1091 2.46049 -0.1317 0.0462048 0.000533403 0.662642 19.3165 12.4684 -5.70178 -0.021865 0.0069966 0.00559453 -41.2246 34.4363 47.3654 6.36111e-015 -3.97569e-016 -3.18055e-015 109.207 -70.4652 118.207 -84.5716 60.1201 -53.161 9.90167 16.4191 -7.42565 22.8453 8.96966 4.96121 61.34 -30.4001 69.2617 34.2355 62.7814 91.0525 -9.51807 15.6896 -1.2931 14.154 -23.9767 13.8291 14.4494 40.7212 -24.5979 -18.4668 -2.76127 -0.980121 -1.18447e-009 1.5602e-007 -4.87131e-009 
-111.614 94.9942 -415.155 10.9417 2.73182 101.414 -13.3322 -10.4689 2.43092 -19.8439 62.9873 25.9933 12.5544 2.17824 -0.0762446 0.0462048 0.000533403 0.662642 20.0402 11.6148 -4.79499 -0.0203689 0.00666981 0.0047008 -44.1929 35.6469 50.6065 -6.36111e-015 7.95139e-016 3.18055e-015 103.105 -69.9347 114.27 -85.4412 59.0496 -52.3564 10.9961 15.5292 -8.87797 21.6651 9.34424 5.59104 61.5905 -28.2759 69.1479 33.9212 61.1221 88.2541 -8.81392 16.1442 0.147659 14.2516 -25.398 17.7214 18.0969 39.3757 -31.4118 -18.2773 -2.44195 -0.920175 -1.18446e-009 1.5602e-007 -4.87131e-009 
-112.224 94.7223 -413.645 9.89798 2.70068 101.631 -12.9557 -6.39155 4.3971 -16.8439 56.0667 22.4694 15.2843 1.55457 -0.0274943 0.0462048 0.000533403 0.662642 20.477 10.8861 -3.71702 -0.0213394 0.00469998 0.00126073 -45.3162 35.1121 52.0908 3.18055e-015 -7.95139e-016 -0 99.3756 -69.7523 112.506 -85.9192 58.4601 -52.0799 9.72322 17.1528 -9.15061 20.4483 9.63895 5.84534 62.4787 -26.6706 69.6612 34.884 59.6156 85.8556 -9.08247 16.2341 1.58782 14.6699 -26.7231 21.2391 20.6964 37.6231 -36.6047 -18.0584 -2.21638 -0.892155 -1.18447e-009 1.5602e-007 -4.87131e-009 
-112.981 94.6252 -411.947 8.83554 2.56807 101.801 -12.4774 -1.64794 6.33638 -13.8978 48.1632 17.8515 12.964 0.899244 0.147139 0.0462048 0.000533403 0.662642 20.2646 11.4398 -1.83442 -0.0571228 0.0904579 0.0464555 -43.466 32.7101 50.3817 3.18055e-015 -7.95139e-016 -0 101.327 -70.2272 116 -86.2784 58.1249 -52.0898 10.206 16.433 -9.27239 19.7851 8.53845 5.42572 63.8488 -25.1773 70.5793 36.4218 58.4889 83.7065 -7.97271 16.7373 1.29081 15.7326 -27.907 23.4315 21.2139 36.1163 -39.1074 -17.759 -1.99949 -0.885123 -1.18446e-009 1.5602e-007 -4.87131e-009 
-113.897 94.5267 -410.042 7.81658 2.35328 101.92 -12.4463 2.55732 8.18097 -11.7837 40.3641 13.3628 14.1653 0.145484 0.192471 0.0462048 0.000533403 0.662642 19.9 11.9608 -0.0447643 -0.0162308 -0.00394955 -0.00909979 -41.1239 28.9934 48.0326 6.36111e-015 1.59028e-015 -3.18055e-015 103.414 -70.6339 119.668 -86.7767 58.0228 -52.0807 9.25236 17.1735 -8.88874 19.1468 7.84152 4.81507 65.3475 -23.7579 71.6514 38.1574 57.6928 81.8599 -7.96739 17.1001 1.60437 17.1646 -29.0947 24.3435 20.3809 35.109 -39.5551 -17.3802 -1.8942 -0.88256 -1.18446e-009 1.5602e-007 -4.87131e-009 
-114.956 94.4177 -408.015 6.88821 2.08363 102 -12.3725 6.17962 9.76778 -10.4348 33.1236 9.11681 13.7974 -0.68672 0.336644 0.0462048 0.000533403 0.662642 19.4129 12.4628 1.5894 -0.0115216 -0.00846933 -0.0143401 -39.041 25.3983 45.9174 -3.18055e-015 -7.95139e-016 3.18055e-015 106.28 -70.9834 124.129 -87.5785 58.0705 -51.8885 9.32033 16.4918 -8.56807 18.8159 7.26585 4.02601 66.7337 -22.3816 72.7696 39.8883 57.1903 80.2069 -7.25554 17.7267 0.833493 18.6483 -30.2492 23.9785 18.6319 34.4562 -38.2639 -16.8943 -1.85092 -0.874716 -1.18446e-009 1.5602e-007 -4.87131e-009 
-116.064 94.2809 -405.861 6.12034 1.83423 102.065 -12.4004 9.22031 11.1251 -7.84454 27.9729 4.35059 11.9095 -1.45312 0.375127 0.0462048 0.000533403 0.662642 18.7906 12.9815 3.0056 -0.0115216 -0.00846933 -0.0143401 -37.2728 22.0373 44.1336 3.18055e-015 -2.38542e-015 -0 109.462 -71.2296 128.918 -88.7955 58.217 -51.3681 8.5676 16.7968 -8.07966 18.8399 6.79232 3.26722 67.7865 -21.1665 73.6495 41.5086 56.893 78.8054 -7.37893 18.1628 0.763951 19.9423 -31.1113 23.4406 16.9569 33.5832 -36.7747 -16.2991 -1.93326 -0.870795 -1.18446e-009 1.5602e-007 -4.87131e-009 
-117.155 94.1065 -403.676 5.51813 1.61369 102.144 -12.7768 11.6515 12.3562 -4.29516 23.9036 -0.159383 11.1021 -2.05583 0.37225 0.0462048 0.000533403 0.662642 18.0775 13.499 4.16053 -0.0115216 -0.00846933 -0.0143401 -35.819 19.0055 42.6822 4.77083e-015 -1.59028e-015 3.18055e-015 113.053 -71.4346 134.168 -94.5269 53.9724 -47.7572 6.44319 21.3654 -7.58031 18.9788 6.37543 2.5684 68.7484 -20.0257 74.2957 42.9694 56.7034 77.5527 -7.12836 18.6865 0.154741 21.0137 -31.6827 22.7105 15.4098 32.5354 -35.1356 -15.5549 -2.10162 -0.863857 -1.18446e-009 1.5602e-007 -4.87131e-009 
-118.164 93.9391 -401.555 5.08853 1.4178 102.26 -13.2886 13.4849 13.3775 -0.234904 20.6678 -3.96635 8.43626 -2.62762 0.332258 0.0462048 0.000533403 0.662642 17.3439 13.9812 5.04033 -0.0115216 -0.00846933 -0.0143401 -34.6557 16.4114 41.5374 4.77083e-015 2.38542e-015 -6.36111e-015 117.107 -71.6008 139.753 -98.0264 51.9642 -45.4615 4.82532 24.2987 -7.04933 19.3733 5.89915 2.05264 69.428 -18.9959 74.5414 44.2315 56.5557 76.4443 -7.38583 19.0457 0.230182 21.8332 -31.919 21.7839 13.981 31.3664 -33.3202 -14.5928 -2.30534 -0.845545 -1.18447e-009 1.5602e-007 -4.87131e-009 
-119.174 93.8094 -399.466 4.81183 1.24174 102.402 -13.8451 13.8927 13.5928 3.69861 18.9738 -6.01831 6.97935 -2.97138 0.29969 0.0462048 0.000533403 0.662642 16.5957 14.4194 5.68388 -0.0115216 -0.00846933 -0.0143401 -33.6506 14.2455 40.6259 -1.76556e-031 3.18055e-015 3.18055e-015 121.496 -71.7989 145.409 -100.186 51.2301 -43.8715 4.33838 25.3056 -6.60353 19.792 5.53187 1.68917 70.0793 -18.0453 74.579 45.2645 56.4289 75.4504 -7.13978 19.3387 -0.24583 22.4935 -31.9728 20.7151 12.6578 30.3534 -31.3021 -13.3218 -2.57637 -0.804434 -1.18446e-009 1.5602e-007 -4.87131e-009 
